<?xml version="1.0" encoding="UTF-8"?>
<svg xmlns="http://www.w3.org/2000/svg" xmlns:xlink="http://www.w3.org/1999/xlink" width="375pt" height="374.999991pt" viewBox="0 0 375 374.999991" version="1.2">
<g id="surface1">
<path style=" stroke:none;fill-rule:nonzero;fill:rgb(99.21875%,80.389404%,41.569519%);fill-opacity:1;" d="M 374.976562 187.5 C 374.976562 190.566406 374.902344 193.632812 374.75 196.699219 C 374.601562 199.761719 374.375 202.824219 374.074219 205.875 C 373.773438 208.929688 373.398438 211.972656 372.949219 215.007812 C 372.496094 218.042969 371.972656 221.066406 371.375 224.074219 C 370.777344 227.085938 370.105469 230.078125 369.359375 233.054688 C 368.613281 236.03125 367.792969 238.984375 366.902344 241.921875 C 366.011719 244.859375 365.050781 247.769531 364.019531 250.660156 C 362.984375 253.546875 361.878906 256.410156 360.707031 259.246094 C 359.53125 262.078125 358.289062 264.882812 356.976562 267.65625 C 355.664062 270.429688 354.285156 273.171875 352.839844 275.875 C 351.394531 278.582031 349.882812 281.25 348.304688 283.882812 C 346.726562 286.515625 345.085938 289.105469 343.382812 291.65625 C 341.675781 294.207031 339.910156 296.714844 338.082031 299.179688 C 336.253906 301.644531 334.367188 304.0625 332.421875 306.433594 C 330.476562 308.804688 328.472656 311.128906 326.410156 313.402344 C 324.351562 315.675781 322.234375 317.898438 320.066406 320.066406 C 317.898438 322.234375 315.675781 324.351562 313.402344 326.410156 C 311.128906 328.472656 308.804688 330.476562 306.433594 332.421875 C 304.0625 334.367188 301.644531 336.253906 299.179688 338.082031 C 296.714844 339.910156 294.207031 341.675781 291.65625 343.382812 C 289.105469 345.085938 286.515625 346.726562 283.882812 348.304688 C 281.25 349.882812 278.582031 351.394531 275.875 352.839844 C 273.171875 354.285156 270.429688 355.664062 267.65625 356.976562 C 264.882812 358.289062 262.078125 359.53125 259.246094 360.707031 C 256.410156 361.878906 253.546875 362.984375 250.660156 364.019531 C 247.769531 365.050781 244.859375 366.011719 241.921875 366.902344 C 238.984375 367.792969 236.03125 368.613281 233.054688 369.359375 C 230.078125 370.105469 227.085938 370.777344 224.074219 371.375 C 221.066406 371.972656 218.042969 372.496094 215.007812 372.949219 C 211.972656 373.398438 208.929688 373.773438 205.875 374.074219 C 202.824219 374.375 199.761719 374.601562 196.699219 374.75 C 193.632812 374.902344 190.566406 374.976562 187.5 374.976562 C 184.433594 374.976562 181.367188 374.902344 178.300781 374.75 C 175.238281 374.601562 172.175781 374.375 169.125 374.074219 C 166.070312 373.773438 163.027344 373.398438 159.992188 372.949219 C 156.957031 372.496094 153.933594 371.972656 150.925781 371.375 C 147.914062 370.777344 144.921875 370.105469 141.945312 369.359375 C 138.96875 368.613281 136.015625 367.792969 133.078125 366.902344 C 130.140625 366.011719 127.230469 365.050781 124.339844 364.019531 C 121.453125 362.984375 118.589844 361.878906 115.753906 360.707031 C 112.921875 359.53125 110.117188 358.289062 107.34375 356.976562 C 104.570312 355.664062 101.828125 354.285156 99.125 352.839844 C 96.417969 351.394531 93.75 349.882812 91.117188 348.304688 C 88.484375 346.726562 85.894531 345.085938 83.34375 343.382812 C 80.792969 341.675781 78.285156 339.910156 75.820312 338.082031 C 73.355469 336.253906 70.9375 334.367188 68.566406 332.421875 C 66.195312 330.476562 63.871094 328.472656 61.597656 326.410156 C 59.324219 324.351562 57.101562 322.234375 54.933594 320.066406 C 52.765625 317.898438 50.648438 315.675781 48.589844 313.402344 C 46.527344 311.128906 44.523438 308.804688 42.578125 306.433594 C 40.632812 304.0625 38.746094 301.644531 36.917969 299.179688 C 35.089844 296.714844 33.324219 294.207031 31.617188 291.65625 C 29.914062 289.105469 28.273438 286.515625 26.695312 283.882812 C 25.117188 281.25 23.605469 278.582031 22.160156 275.875 C 20.714844 273.171875 19.335938 270.429688 18.023438 267.65625 C 16.710938 264.882812 15.46875 262.078125 14.292969 259.246094 C 13.121094 256.410156 12.015625 253.546875 10.980469 250.660156 C 9.949219 247.769531 8.988281 244.859375 8.097656 241.921875 C 7.207031 238.984375 6.386719 236.03125 5.640625 233.054688 C 4.894531 230.078125 4.222656 227.085938 3.625 224.074219 C 3.027344 221.066406 2.503906 218.042969 2.050781 215.007812 C 1.601562 211.972656 1.226562 208.929688 0.925781 205.875 C 0.625 202.824219 0.398438 199.761719 0.25 196.699219 C 0.0976562 193.632812 0.0234375 190.566406 0.0234375 187.5 C 0.0234375 184.433594 0.0976562 181.367188 0.25 178.300781 C 0.398438 175.238281 0.625 172.175781 0.925781 169.125 C 1.226562 166.070312 1.601562 163.027344 2.050781 159.992188 C 2.503906 156.957031 3.027344 153.933594 3.625 150.925781 C 4.222656 147.914062 4.894531 144.921875 5.640625 141.945312 C 6.386719 138.96875 7.207031 136.015625 8.097656 133.078125 C 8.988281 130.140625 9.949219 127.230469 10.980469 124.339844 C 12.015625 121.453125 13.121094 118.589844 14.292969 115.753906 C 15.46875 112.921875 16.710938 110.117188 18.023438 107.34375 C 19.335938 104.570312 20.714844 101.828125 22.160156 99.125 C 23.605469 96.417969 25.117188 93.75 26.695312 91.117188 C 28.273438 88.484375 29.914062 85.894531 31.617188 83.34375 C 33.324219 80.792969 35.089844 78.285156 36.917969 75.820312 C 38.746094 73.355469 40.632812 70.9375 42.578125 68.566406 C 44.523438 66.195312 46.527344 63.871094 48.589844 61.597656 C 50.648438 59.324219 52.765625 57.101562 54.933594 54.933594 C 57.101562 52.765625 59.324219 50.648438 61.597656 48.589844 C 63.871094 46.527344 66.195312 44.523438 68.566406 42.578125 C 70.9375 40.632812 73.355469 38.746094 75.820312 36.917969 C 78.285156 35.089844 80.792969 33.324219 83.34375 31.617188 C 85.894531 29.914062 88.484375 28.273438 91.117188 26.695312 C 93.75 25.117188 96.417969 23.605469 99.125 22.160156 C 101.828125 20.714844 104.570312 19.335938 107.34375 18.023438 C 110.117188 16.710938 112.921875 15.46875 115.753906 14.292969 C 118.589844 13.121094 121.453125 12.015625 124.339844 10.980469 C 127.230469 9.949219 130.140625 8.988281 133.078125 8.097656 C 136.015625 7.207031 138.96875 6.386719 141.945312 5.640625 C 144.921875 4.894531 147.914062 4.222656 150.925781 3.625 C 153.933594 3.027344 156.957031 2.503906 159.992188 2.050781 C 163.027344 1.601562 166.070312 1.226562 169.125 0.925781 C 172.175781 0.625 175.238281 0.398438 178.300781 0.25 C 181.367188 0.0976562 184.433594 0.0234375 187.5 0.0234375 C 190.566406 0.0234375 193.632812 0.0976562 196.699219 0.25 C 199.761719 0.398438 202.824219 0.625 205.875 0.925781 C 208.929688 1.226562 211.972656 1.601562 215.007812 2.050781 C 218.042969 2.503906 221.066406 3.027344 224.074219 3.625 C 227.085938 4.222656 230.078125 4.894531 233.054688 5.640625 C 236.03125 6.386719 238.984375 7.207031 241.921875 8.097656 C 244.859375 8.988281 247.769531 9.949219 250.660156 10.980469 C 253.546875 12.015625 256.410156 13.121094 259.246094 14.292969 C 262.078125 15.46875 264.882812 16.710938 267.65625 18.023438 C 270.429688 19.335938 273.171875 20.714844 275.875 22.160156 C 278.582031 23.605469 281.25 25.117188 283.882812 26.695312 C 286.515625 28.273438 289.105469 29.914062 291.65625 31.617188 C 294.207031 33.324219 296.714844 35.089844 299.179688 36.917969 C 301.644531 38.746094 304.0625 40.632812 306.433594 42.578125 C 308.804688 44.523438 311.128906 46.527344 313.402344 48.589844 C 315.675781 50.648438 317.898438 52.765625 320.066406 54.933594 C 322.234375 57.101562 324.351562 59.324219 326.410156 61.597656 C 328.472656 63.871094 330.476562 66.195312 332.421875 68.566406 C 334.367188 70.9375 336.253906 73.355469 338.082031 75.820312 C 339.910156 78.285156 341.675781 80.792969 343.382812 83.34375 C 345.085938 85.894531 346.726562 88.484375 348.304688 91.117188 C 349.882812 93.75 351.394531 96.417969 352.839844 99.125 C 354.285156 101.828125 355.664062 104.570312 356.976562 107.34375 C 358.289062 110.117188 359.53125 112.921875 360.707031 115.753906 C 361.878906 118.589844 362.984375 121.453125 364.019531 124.339844 C 365.050781 127.230469 366.011719 130.140625 366.902344 133.078125 C 367.792969 136.015625 368.613281 138.96875 369.359375 141.945312 C 370.105469 144.921875 370.777344 147.914062 371.375 150.925781 C 371.972656 153.933594 372.496094 156.957031 372.949219 159.992188 C 373.398438 163.027344 373.773438 166.070312 374.074219 169.125 C 374.375 172.175781 374.601562 175.238281 374.75 178.300781 C 374.902344 181.367188 374.976562 184.433594 374.976562 187.5 Z M 374.976562 187.5 "/>
<path style=" stroke:none;fill-rule:nonzero;fill:rgb(100%,90.589905%,62.748718%);fill-opacity:1;" d="M 341.929688 187.5 C 341.929688 190.027344 341.871094 192.554688 341.746094 195.078125 C 341.621094 197.601562 341.433594 200.121094 341.1875 202.636719 C 340.941406 205.152344 340.628906 207.660156 340.257812 210.160156 C 339.890625 212.660156 339.457031 215.148438 338.964844 217.628906 C 338.472656 220.105469 337.917969 222.570312 337.304688 225.023438 C 336.6875 227.476562 336.015625 229.910156 335.28125 232.328125 C 334.546875 234.746094 333.753906 237.148438 332.902344 239.527344 C 332.050781 241.90625 331.144531 244.261719 330.175781 246.597656 C 329.207031 248.933594 328.183594 251.242188 327.105469 253.527344 C 326.023438 255.8125 324.886719 258.070312 323.695312 260.296875 C 322.503906 262.527344 321.257812 264.726562 319.960938 266.894531 C 318.660156 269.0625 317.308594 271.195312 315.90625 273.296875 C 314.5 275.398438 313.046875 277.464844 311.539062 279.496094 C 310.035156 281.523438 308.480469 283.515625 306.875 285.46875 C 305.273438 287.425781 303.625 289.335938 301.925781 291.210938 C 300.230469 293.082031 298.488281 294.914062 296.699219 296.699219 C 294.914062 298.488281 293.082031 300.230469 291.210938 301.925781 C 289.335938 303.625 287.425781 305.273438 285.46875 306.878906 C 283.515625 308.480469 281.523438 310.035156 279.496094 311.539062 C 277.464844 313.046875 275.398438 314.5 273.296875 315.90625 C 271.195312 317.308594 269.0625 318.660156 266.894531 319.960938 C 264.726562 321.257812 262.527344 322.503906 260.296875 323.695312 C 258.070312 324.886719 255.8125 326.023438 253.527344 327.105469 C 251.242188 328.183594 248.933594 329.207031 246.597656 330.175781 C 244.261719 331.144531 241.90625 332.050781 239.527344 332.902344 C 237.148438 333.753906 234.746094 334.546875 232.328125 335.28125 C 229.910156 336.015625 227.476562 336.6875 225.023438 337.304688 C 222.570312 337.917969 220.105469 338.472656 217.628906 338.964844 C 215.148438 339.457031 212.660156 339.890625 210.160156 340.257812 C 207.660156 340.628906 205.152344 340.941406 202.636719 341.1875 C 200.121094 341.433594 197.601562 341.621094 195.078125 341.746094 C 192.554688 341.871094 190.027344 341.929688 187.5 341.929688 C 184.972656 341.929688 182.445312 341.871094 179.921875 341.746094 C 177.398438 341.621094 174.878906 341.433594 172.363281 341.1875 C 169.847656 340.941406 167.339844 340.628906 164.839844 340.257812 C 162.339844 339.890625 159.851562 339.457031 157.371094 338.964844 C 154.894531 338.472656 152.429688 337.917969 149.976562 337.304688 C 147.523438 336.6875 145.089844 336.015625 142.671875 335.28125 C 140.253906 334.546875 137.851562 333.753906 135.472656 332.902344 C 133.09375 332.050781 130.738281 331.144531 128.402344 330.175781 C 126.066406 329.207031 123.757812 328.183594 121.472656 327.105469 C 119.1875 326.023438 116.929688 324.886719 114.703125 323.695312 C 112.472656 322.503906 110.273438 321.257812 108.105469 319.960938 C 105.9375 318.660156 103.804688 317.308594 101.703125 315.90625 C 99.601562 314.5 97.535156 313.046875 95.503906 311.539062 C 93.476562 310.035156 91.484375 308.480469 89.53125 306.875 C 87.578125 305.273438 85.664062 303.625 83.789062 301.925781 C 81.917969 300.230469 80.085938 298.488281 78.300781 296.699219 C 76.511719 294.914062 74.769531 293.082031 73.074219 291.210938 C 71.375 289.335938 69.726562 287.425781 68.121094 285.46875 C 66.519531 283.515625 64.964844 281.523438 63.460938 279.496094 C 61.953125 277.464844 60.5 275.398438 59.09375 273.296875 C 57.691406 271.195312 56.339844 269.0625 55.039062 266.894531 C 53.742188 264.726562 52.496094 262.527344 51.304688 260.296875 C 50.113281 258.070312 48.976562 255.8125 47.894531 253.527344 C 46.816406 251.242188 45.792969 248.933594 44.824219 246.597656 C 43.855469 244.261719 42.949219 241.90625 42.097656 239.527344 C 41.246094 237.148438 40.453125 234.746094 39.71875 232.328125 C 38.984375 229.910156 38.3125 227.476562 37.695312 225.023438 C 37.082031 222.570312 36.527344 220.105469 36.035156 217.628906 C 35.542969 215.148438 35.109375 212.660156 34.742188 210.160156 C 34.371094 207.660156 34.058594 205.152344 33.8125 202.636719 C 33.566406 200.121094 33.378906 197.601562 33.253906 195.078125 C 33.128906 192.554688 33.070312 190.027344 33.070312 187.5 C 33.070312 184.972656 33.128906 182.445312 33.253906 179.921875 C 33.378906 177.398438 33.566406 174.878906 33.8125 172.363281 C 34.058594 169.847656 34.371094 167.339844 34.742188 164.839844 C 35.109375 162.339844 35.542969 159.851562 36.035156 157.371094 C 36.527344 154.894531 37.082031 152.429688 37.695312 149.976562 C 38.3125 147.523438 38.984375 145.089844 39.71875 142.671875 C 40.453125 140.253906 41.246094 137.851562 42.097656 135.472656 C 42.949219 133.09375 43.855469 130.738281 44.824219 128.402344 C 45.792969 126.066406 46.816406 123.757812 47.894531 121.472656 C 48.976562 119.1875 50.113281 116.929688 51.304688 114.703125 C 52.496094 112.472656 53.742188 110.273438 55.039062 108.105469 C 56.339844 105.9375 57.691406 103.804688 59.09375 101.703125 C 60.5 99.601562 61.953125 97.535156 63.460938 95.503906 C 64.964844 93.476562 66.519531 91.484375 68.121094 89.53125 C 69.726562 87.578125 71.375 85.664062 73.074219 83.789062 C 74.769531 81.917969 76.511719 80.085938 78.300781 78.300781 C 80.085938 76.511719 81.917969 74.769531 83.789062 73.074219 C 85.664062 71.375 87.578125 69.726562 89.53125 68.125 C 91.484375 66.519531 93.476562 64.964844 95.503906 63.460938 C 97.535156 61.953125 99.601562 60.5 101.703125 59.09375 C 103.804688 57.691406 105.9375 56.339844 108.105469 55.039062 C 110.273438 53.742188 112.472656 52.496094 114.703125 51.304688 C 116.929688 50.113281 119.1875 48.976562 121.472656 47.894531 C 123.757812 46.816406 126.066406 45.792969 128.402344 44.824219 C 130.738281 43.855469 133.09375 42.949219 135.472656 42.097656 C 137.851562 41.246094 140.253906 40.453125 142.671875 39.71875 C 145.089844 38.984375 147.523438 38.3125 149.976562 37.695312 C 152.429688 37.082031 154.894531 36.527344 157.371094 36.035156 C 159.851562 35.542969 162.339844 35.109375 164.839844 34.742188 C 167.339844 34.371094 169.847656 34.058594 172.363281 33.8125 C 174.878906 33.566406 177.398438 33.378906 179.921875 33.253906 C 182.445312 33.128906 184.972656 33.070312 187.5 33.070312 C 190.027344 33.070312 192.554688 33.128906 195.078125 33.253906 C 197.601562 33.378906 200.121094 33.566406 202.636719 33.8125 C 205.152344 34.058594 207.660156 34.371094 210.160156 34.742188 C 212.660156 35.109375 215.148438 35.542969 217.628906 36.035156 C 220.105469 36.527344 222.570312 37.082031 225.023438 37.695312 C 227.476562 38.3125 229.910156 38.984375 232.328125 39.71875 C 234.746094 40.453125 237.148438 41.246094 239.527344 42.097656 C 241.90625 42.949219 244.261719 43.855469 246.597656 44.824219 C 248.933594 45.792969 251.242188 46.816406 253.527344 47.894531 C 255.8125 48.976562 258.070312 50.113281 260.296875 51.304688 C 262.527344 52.496094 264.726562 53.742188 266.894531 55.039062 C 269.0625 56.339844 271.195312 57.691406 273.296875 59.09375 C 275.398438 60.5 277.464844 61.953125 279.496094 63.460938 C 281.523438 64.964844 283.515625 66.519531 285.46875 68.125 C 287.425781 69.726562 289.335938 71.375 291.210938 73.074219 C 293.082031 74.769531 294.914062 76.511719 296.699219 78.300781 C 298.488281 80.085938 300.230469 81.917969 301.925781 83.789062 C 303.625 85.664062 305.273438 87.578125 306.878906 89.53125 C 308.480469 91.484375 310.035156 93.476562 311.539062 95.503906 C 313.046875 97.535156 314.5 99.601562 315.90625 101.703125 C 317.308594 103.804688 318.660156 105.9375 319.960938 108.105469 C 321.257812 110.273438 322.503906 112.472656 323.695312 114.703125 C 324.886719 116.929688 326.023438 119.1875 327.105469 121.472656 C 328.183594 123.757812 329.207031 126.066406 330.175781 128.402344 C 331.144531 130.738281 332.050781 133.09375 332.902344 135.472656 C 333.753906 137.851562 334.546875 140.253906 335.28125 142.671875 C 336.015625 145.089844 336.6875 147.523438 337.304688 149.976562 C 337.917969 152.429688 338.472656 154.894531 338.964844 157.371094 C 339.457031 159.851562 339.890625 162.339844 340.257812 164.839844 C 340.628906 167.339844 340.941406 169.847656 341.1875 172.363281 C 341.433594 174.878906 341.621094 177.398438 341.746094 179.921875 C 341.871094 182.445312 341.929688 184.972656 341.929688 187.5 Z M 341.929688 187.5 "/>
<path style=" stroke:none;fill-rule:nonzero;fill:rgb(99.21875%,80.389404%,41.569519%);fill-opacity:1;" d="M 247.785156 202.773438 C 239.851562 193.472656 225.558594 184.90625 204.902344 177.074219 C 203.03125 176.351562 200.671875 175.476562 197.835938 174.453125 L 197.835938 97.308594 C 203.6875 98.964844 208.949219 101.617188 213.566406 105.335938 C 221.886719 112.042969 227.8125 121.808594 231.335938 134.632812 L 253.070312 128.320312 C 247.980469 111.089844 239.582031 97.921875 227.886719 88.816406 C 219.265625 82.105469 209.246094 77.878906 197.835938 76.113281 L 197.835938 58.117188 L 177.167969 58.117188 L 177.167969 75.484375 C 161.527344 76.761719 148.714844 81.933594 138.75 91.019531 C 127.148438 101.59375 121.347656 115.644531 121.347656 133.167969 C 121.347656 146.285156 125.089844 157.15625 132.582031 165.765625 C 140.070312 174.382812 152.964844 182.265625 171.277344 189.414062 C 172.855469 190.003906 174.820312 190.734375 177.167969 191.597656 L 177.167969 277.132812 C 170.308594 275.230469 163.980469 271.875 158.207031 267.019531 C 148.707031 259.042969 142 248.105469 138.085938 234.203125 L 115.324219 241.6875 C 121.292969 260.875 130.742188 275.367188 143.664062 285.15625 C 153.085938 292.292969 164.261719 296.816406 177.167969 298.75 L 177.167969 316.882812 L 197.835938 316.882812 L 197.835938 299.683594 C 215.625 298.753906 230.105469 293.3125 241.25 283.320312 C 253.535156 272.308594 259.679688 257.746094 259.679688 239.632812 C 259.675781 224.359375 255.710938 212.074219 247.785156 202.773438 Z M 158.644531 157.25 C 153.75 153.332031 150.148438 149.222656 147.851562 144.914062 C 145.546875 140.605469 144.398438 135.90625 144.398438 130.816406 C 144.398438 119.949219 147.851562 111.308594 154.753906 104.894531 C 160.542969 99.515625 168.03125 96.421875 177.167969 95.558594 L 177.167969 166.660156 C 168.082031 162.914062 161.902344 159.777344 158.644531 157.25 Z M 224.140625 268.632812 C 217.304688 274.371094 208.519531 277.6875 197.835938 278.65625 L 197.835938 199.335938 C 208.605469 203.644531 216.597656 207.535156 221.789062 210.996094 C 226.6875 214.328125 230.355469 218.484375 232.804688 223.480469 C 235.25 228.472656 236.476562 234.34375 236.476562 241.101562 C 236.476562 252.554688 232.363281 261.734375 224.140625 268.632812 Z M 224.140625 268.632812 "/>
<path style=" stroke:none;fill-rule:nonzero;fill:rgb(55.688477%,63.529968%,65.489197%);fill-opacity:0.498;" d="M 42.660156 107.144531 C 41.980469 107.144531 41.289062 107.023438 40.617188 106.769531 C 37.628906 105.644531 36.117188 102.304688 37.246094 99.3125 C 47.203125 72.90625 88.578125 35.324219 111.046875 27.597656 C 114.070312 26.554688 117.363281 28.164062 118.402344 31.1875 C 119.441406 34.207031 117.835938 37.5 114.8125 38.539062 C 95.1875 45.292969 56.664062 80.613281 48.074219 103.394531 C 47.199219 105.714844 44.996094 107.144531 42.660156 107.144531 Z M 42.660156 107.144531 "/>
<path style=" stroke:none;fill-rule:nonzero;fill:rgb(55.688477%,63.529968%,65.489197%);fill-opacity:0.498;" d="M 280.960938 290.410156 C 279.425781 290.410156 277.894531 289.804688 276.753906 288.597656 C 274.558594 286.277344 274.660156 282.613281 276.984375 280.417969 C 290.25 267.878906 306.75 246.007812 313.710938 225.429688 C 314.734375 222.402344 318.019531 220.773438 321.046875 221.800781 C 324.074219 222.824219 325.699219 226.109375 324.675781 229.136719 C 316.558594 253.140625 298.195312 276.292969 284.9375 288.828125 C 283.816406 289.882812 282.386719 290.410156 280.960938 290.410156 Z M 280.960938 290.410156 "/>
</g>
</svg>
